<svg xmlns="http://www.w3.org/2000/svg" viewBox="0 0 15 14.98"><defs><style>.cls-1{fill:#fff;}</style></defs><title>Asset 1</title><g id="Layer_2" data-name="Layer 2"><g id="onMouseOver"><path class="cls-1" d="M7,4.44,5.58,5.89,4,7.5A1,1,0,0,0,3.72,8c-.19.88-.38,1.77-.57,2.65l-.1.49a.7.7,0,0,0,.18.64.68.68,0,0,0,.48.2l.16,0,.54-.11L7,11.28A1,1,0,0,0,7.49,11L14.7,3.79a1,1,0,0,0,.3-.65A.43.43,0,0,0,15,3l0-.19a2.7,2.7,0,0,0-.14-.5h0A4,4,0,0,0,12.59.15,2.45,2.45,0,0,0,12,0h-.05a.86.86,0,0,0-.74.28ZM11.82.74h.07a1.61,1.61,0,0,1,.42.09,3.27,3.27,0,0,1,1.81,1.78,1.9,1.9,0,0,1,.1.35l0,.15a.23.23,0,0,1-.08.13L7,10.46a.24.24,0,0,1-.13.07l-2.58.54-.45.09.09-.4c.19-.88.37-1.77.56-2.65A.27.27,0,0,1,4.51,8l1.6-1.61L7.56,5,11.71.8C11.77.75,11.8.74,11.82.74Z"/><path class="cls-1" d="M1.19,3.34H6.53a.38.38,0,0,0,0-.75H1.19A1.19,1.19,0,0,0,0,3.77v10A1.19,1.19,0,0,0,1.19,15h10a1.19,1.19,0,0,0,1.19-1.19V8.66a.38.38,0,0,0-.75,0v5.12a.44.44,0,0,1-.44.44h-10a.44.44,0,0,1-.44-.44v-10A.44.44,0,0,1,1.19,3.34Z"/></g></g></svg>