<svg xmlns="http://www.w3.org/2000/svg" viewBox="0 0 20.21 14.16"><defs><style>.cls-1{fill:#b3b3b3;}</style></defs><title>Asset 1</title><g id="Layer_2" data-name="Layer 2"><g id="Left_menu" data-name="Left menu"><path class="cls-1" d="M20.21,1.35V1.27A1.29,1.29,0,0,0,19.84.4l0,0a0,0,0,0,1,0,0L19.63.21s0,0-.05,0L19.39.11s0,0-.05,0A.76.76,0,0,0,19.09,0H19l-.29,0H1.43a1.29,1.29,0,0,0-.32,0A.09.09,0,0,0,1,.05C1,.08.88.08.83.11s0,0-.05,0L.58.21l0,0L.4.35.32.42A1.25,1.25,0,0,0,0,1.14V13a1.28,1.28,0,0,0,.5.87,1.55,1.55,0,0,0,.87.26H18.83a.89.89,0,0,0,.27,0h.05c.08,0,.16,0,.21-.05h0a1.22,1.22,0,0,0,.82-1.19V1.37s0,0,0,0ZM18.51,1,10.16,9.1,8.25,7.25,1.7,1H18.51ZM1,12.65v-11L7.16,7.57Zm8.91.55h-8l6-4.92,1.93,1.88a.56.56,0,0,0,.24.13h.16a.44.44,0,0,0,.24-.13l1.83-1.77,6,4.82H9.9Zm9.33-.53-6.2-5,6.2-6Zm0,0"/></g></g></svg>