<svg xmlns="http://www.w3.org/2000/svg" viewBox="0 0 40.76 50"><defs><style>.cls-1{fill:#00aca2;}</style></defs><title>Asset 2</title><g id="Layer_2" data-name="Layer 2"><g id="Value_messages" data-name="Value messages"><path class="cls-1" d="M40.52,46.62a14.62,14.62,0,0,1-4.3-9.7A4.59,4.59,0,0,0,40,32.41c0-.15,0-.31,0-.47l-.48-4.79-1-9.58L37.56,8l-.48-4.79a3.59,3.59,0,0,0-7.14,0L29,12.8l-1,9.58-1,9.58a4.64,4.64,0,0,0,0,.47,4.59,4.59,0,0,0,3.77,4.51,14.62,14.62,0,0,1-4.3,9.7.79.79,0,0,0,1.12,1.12A16.19,16.19,0,0,0,32.36,37h.35V49.21a.79.79,0,0,0,1.58,0V37h.35a16.19,16.19,0,0,0,4.76,10.74.79.79,0,0,0,1.12-1.12ZM31.59,35.41a3,3,0,0,1-3-3,3.06,3.06,0,0,1,0-.31l.9-8.86h4.08a.79.79,0,0,0,0-1.58H29.66l.81-8h3.62a.79.79,0,0,0,0-1.58H30.63l.88-8.7a2,2,0,0,1,3.69-.87h-.26a.79.79,0,0,0,0,1.58h.63l.32,3.21H33.4a.79.79,0,0,0,0,1.58h2.65l.81,8H33.58a.79.79,0,0,0,0,1.58H37l.81,8H36.74a.79.79,0,0,0,0,1.58H38l.41,4.08a3.06,3.06,0,0,1,0,.31,3,3,0,0,1-3,3H31.59Z"/><path class="cls-1" d="M22.34,16.17a9.94,9.94,0,0,0-2.55-6.67,7.67,7.67,0,1,0-14.9,0,9.94,9.94,0,0,0-2.55,6.67,10.13,10.13,0,0,0,.07,1.18A12.21,12.21,0,0,0,0,24.66,12.35,12.35,0,0,0,11.54,37V48.79a.79.79,0,1,0,1.58,0V37A12.35,12.35,0,0,0,24.67,24.66a12.21,12.21,0,0,0-2.4-7.31A10.13,10.13,0,0,0,22.34,16.17Zm-10-14.58A6.09,6.09,0,0,1,18.2,9.3l-5.07,5.07V7.67a.79.79,0,0,0-1.58,0v6.7l-.73-.73A.79.79,0,1,0,9.7,14.76l1.85,1.85v8.13L4,17.2a8.54,8.54,0,0,1-.06-1,8.36,8.36,0,0,1,1.88-5.3l1.66,1.66A.79.79,0,1,0,8.58,11.4L6.47,9.3a6.09,6.09,0,0,1,5.87-7.71Zm-9,17.2L11.54,27v8.41a10.77,10.77,0,0,1-10-10.72A10.63,10.63,0,0,1,3.33,18.78ZM13.13,27l4.79-4.79a.79.79,0,1,0-1.12-1.12l-3.67,3.67V16.61l5.75-5.75a8.36,8.36,0,0,1,1.88,5.3,8.55,8.55,0,0,1-.06,1L19,18.85A.79.79,0,0,0,20.15,20l1.19-1.19a10.63,10.63,0,0,1,1.75,5.88,10.77,10.77,0,0,1-10,10.72V27Z"/></g></g></svg>