<svg xmlns="http://www.w3.org/2000/svg" viewBox="0 0 50 50"><defs><style>.cls-1{fill:#00aca2;}</style></defs><title>Asset 1</title><g id="Layer_2" data-name="Layer 2"><g id="Value_messages" data-name="Value messages"><path class="cls-1" d="M21.08,12.25A10.62,10.62,0,0,0,28.2,15h3.47V30.83a.83.83,0,1,0,1.66,0V10a10.58,10.58,0,0,0-2.75-7.29A10.4,10.4,0,0,0,23.48,0H19.17a.83.83,0,0,0-.83.83V5A10.57,10.57,0,0,0,21.08,12.25ZM20,5V1.67h3.48a8.86,8.86,0,0,1,5.93,2.25A9.05,9.05,0,0,1,31.67,10v2.15L23.09,3.57a.83.83,0,0,0-1.18,1.18l8.58,8.58H28.2a8.88,8.88,0,0,1-5.94-2.26A9,9,0,0,1,20,5Z"/><path class="cls-1" d="M35,20.83a.84.84,0,0,0,.07.33l0,0a.81.81,0,0,0,.15.23.8.8,0,0,0,.21.14l.05,0a.84.84,0,0,0,.32.07h4.31a10.61,10.61,0,0,0,7.11-2.75A10.54,10.54,0,0,0,50,11.67V7.5a.83.83,0,0,0-.83-.83H44.86a10.62,10.62,0,0,0-7.11,2.75A10.54,10.54,0,0,0,35,16.67v4.16Zm3.92-10.24a8.89,8.89,0,0,1,5.94-2.26h3.47V11.7a9,9,0,0,1-2.26,6A8.88,8.88,0,0,1,40.14,20H37.84l8.58-8.58a.83.83,0,0,0-1.18-1.18l-8.58,8.58V16.63A8.94,8.94,0,0,1,38.92,10.59Z"/><path class="cls-1" d="M47.53,33.45a3.27,3.27,0,0,0-2.48.3l-9.59,4.67c-1.49.75-3,.75-6.29.75a64.1,64.1,0,0,1-8.2-.82A.83.83,0,1,0,20.7,40a64.14,64.14,0,0,0,8.47.84c3.46,0,5.2,0,7-.92l9.64-4.69a1.67,1.67,0,0,1,2.28.61,1.68,1.68,0,0,1-.63,2.29l-11.27,7s-2.43,1.53-7.88,1.53c-4.72,0-12-4-12.13-4.08a12.87,12.87,0,0,0-5.37-.92.83.83,0,1,0,0,1.67,11.82,11.82,0,0,1,4.6.73h0c.32.17,7.75,4.27,12.9,4.27,6,0,8.68-1.73,8.77-1.79l11.23-7a3.33,3.33,0,0,0-.8-6.11Z"/><path class="cls-1" d="M4.17,44.58a1.25,1.25,0,1,0-1.25,1.25A1.25,1.25,0,0,0,4.17,44.58Z"/><path class="cls-1" d="M5.83,26.67h-5a.83.83,0,1,0,0,1.67h5a.83.83,0,0,1,.83.83V47.5a.83.83,0,0,1-.83.83h-5A.83.83,0,0,0,.83,50h5a2.5,2.5,0,0,0,2.5-2.5V29.17A2.5,2.5,0,0,0,5.83,26.67Z"/><path class="cls-1" d="M10.83,31.67H17.5c1,0,2.62,1.24,4.08,2.33,1.83,1.37,3.56,2.67,5.08,2.67h5a2.9,2.9,0,0,1,1.91.59.83.83,0,0,0,1.18-1.18A4.43,4.43,0,0,0,31.67,35h-5c-1,0-2.62-1.24-4.08-2.33C20.75,31.29,19,30,17.5,30H10.83a.83.83,0,0,0,0,1.67Z"/></g></g></svg>