<svg xmlns="http://www.w3.org/2000/svg" xmlns:xlink="http://www.w3.org/1999/xlink" viewBox="0 0 15 12"><defs><style>.cls-1{fill:none;}.cls-2{clip-path:url(#clip-path);}.cls-3{fill:#fff;}</style><clipPath id="clip-path" transform="translate(0 -1.5)"><rect id="SVGID" class="cls-1" width="15" height="15"/></clipPath></defs><title>Asset 2</title><g id="Layer_2" data-name="Layer 2"><g id="onMouseOver"><g class="cls-2"><path class="cls-3" d="M8.9,5.32A2.58,2.58,0,0,0,5.33,8.89L4.19,10A11.59,11.59,0,0,1,1.27,7.49,11.79,11.79,0,0,1,3.71,5.32a6.42,6.42,0,0,1,6-.86ZM6.14,8.08A1.43,1.43,0,0,1,6,7.5,1.48,1.48,0,0,1,8.08,6.13Zm7.2-6.42a.55.55,0,0,0-.78,0l-2,2a7.51,7.51,0,0,0-7.49.78,12.51,12.51,0,0,0-3,2.77.56.56,0,0,0,0,.67,13.53,13.53,0,0,0,3.26,3L1.66,12.56a.55.55,0,1,0,.78.78L13.34,2.44A.55.55,0,0,0,13.34,1.66Z" transform="translate(0 -1.5)"/><path class="cls-3" d="M14.88,7.15a14.76,14.76,0,0,0-2.34-2.34.55.55,0,1,0-.68.87,13.16,13.16,0,0,1,1.87,1.82,12.08,12.08,0,0,1-2,1.88,6.81,6.81,0,0,1-5.52,1.44A.55.55,0,1,0,6,11.9,6.86,6.86,0,0,0,7.4,12a7.28,7.28,0,0,0,2.18-.34,9.72,9.72,0,0,0,2.81-1.45,12.64,12.64,0,0,0,2.5-2.43A.56.56,0,0,0,14.88,7.15Z" transform="translate(0 -1.5)"/></g></g></g></svg>