<svg xmlns="http://www.w3.org/2000/svg" viewBox="0 0 14.19 20.6"><defs><style>.cls-1{fill:#b3b3b3;}</style></defs><title>Asset 2</title><g id="Layer_2" data-name="Layer 2"><g id="Left_menu" data-name="Left menu"><path class="cls-1" d="M12.25,9V5.15a5.16,5.16,0,0,0-10.32,0V9A1.94,1.94,0,0,0,0,10.95v7.72A1.94,1.94,0,0,0,1.93,20.6H12.25a1.94,1.94,0,0,0,1.94-1.93V10.95A1.94,1.94,0,0,0,12.25,9Zm-9-3.86a3.87,3.87,0,0,1,7.74,0V9H3.22ZM12.9,18.67a.65.65,0,0,1-.65.64H1.93a.64.64,0,0,1-.64-.64V10.95a.64.64,0,0,1,.64-.64H12.25a.65.65,0,0,1,.65.64ZM7.74,14.34V12.87a.65.65,0,0,0-1.29,0v1.46a1.29,1.29,0,1,0,1.29,0Zm0,0"/></g></g></svg>