<svg xmlns="http://www.w3.org/2000/svg" viewBox="0 0 38.66 50"><defs><style>.cls-1{fill:#00aca2;}</style></defs><title>Asset 3</title><g id="Layer_2" data-name="Layer 2"><g id="Value_messages" data-name="Value messages"><path class="cls-1" d="M19.32,0a7.95,7.95,0,0,0-7.2,11.34h-11A1.14,1.14,0,0,0,0,12.49V48.86A1.14,1.14,0,0,0,1.14,50H37.51a1.14,1.14,0,0,0,1.15-1.12V35.79h0a1.14,1.14,0,0,0-1.89-.85,5.68,5.68,0,1,1,0-8.53,1.14,1.14,0,0,0,1.89-.85h0V12.49a1.14,1.14,0,0,0-1.15-1.15h-11A7.95,7.95,0,0,0,19.32,0Zm0,2.26a5.69,5.69,0,0,1,4.26,9.45,1.14,1.14,0,0,0,.85,1.9H35.25a1.14,1.14,0,0,1,1.14,1.14v7.12A1.13,1.13,0,0,1,35,23a8,8,0,1,0,0,15.4,1.13,1.13,0,0,1,1.4,1.1v7.11a1.14,1.14,0,0,1-1.14,1.14H3.41a1.14,1.14,0,0,1-1.14-1.14V14.75a1.14,1.14,0,0,1,1.14-1.14h10.8a1.14,1.14,0,0,0,.85-1.89,5.69,5.69,0,0,1,4.26-9.45Z"/></g></g></svg>