<svg xmlns="http://www.w3.org/2000/svg" viewBox="0 0 17.01 20"><defs><style>.cls-1{fill:#b3b3b3;}</style></defs><g id="Layer_2" data-name="Layer 2"><g id="Layer_2-2" data-name="Layer 2"><path class="cls-1" d="M8.43,10.78h.13a3.82,3.82,0,0,0,2.92-1.26c1.59-1.8,1.33-4.88,1.3-5.17a4.23,4.23,0,0,0-2-3.76A4.6,4.6,0,0,0,8.55,0H8.48A4.61,4.61,0,0,0,6.25.57a4.23,4.23,0,0,0-2,3.77c0,.29-.29,3.38,1.3,5.17A3.81,3.81,0,0,0,8.43,10.78ZM5.32,4.44s0,0,0,0c.14-3,2.24-3.29,3.15-3.29h0c1.12,0,3,.48,3.15,3.29a.08.08,0,0,0,0,0s.29,2.85-1,4.33a2.71,2.71,0,0,1-2.13.89h0a2.71,2.71,0,0,1-2.13-.89C5,7.3,5.32,4.47,5.32,4.44Z"/><path class="cls-1" d="M17,15.89h0s0-.07,0-.1c0-.82-.08-2.74-1.88-3.35h0a12,12,0,0,1-3.44-1.57.56.56,0,1,0-.64.92,12.9,12.9,0,0,0,3.78,1.73c1,.34,1.07,1.38,1.1,2.32a.83.83,0,0,0,0,.1,7.52,7.52,0,0,1-.09,1.28,15.24,15.24,0,0,1-7.3,1.7,15.33,15.33,0,0,1-7.31-1.7,7.12,7.12,0,0,1-.09-1.28s0-.07,0-.1c0-.94.14-2,1.1-2.32A13,13,0,0,0,6,11.75a.56.56,0,1,0-.64-.92A11.82,11.82,0,0,1,1.92,12.4h0C.08,13,0,15,0,15.77a.83.83,0,0,1,0,.1H0a6.35,6.35,0,0,0,.21,1.88A.53.53,0,0,0,.43,18a15.67,15.67,0,0,0,8.08,2,15.71,15.71,0,0,0,8.08-2,.55.55,0,0,0,.22-.26A6.66,6.66,0,0,0,17,15.89Z"/></g></g></svg>
