<?xml version="1.0" encoding="utf-8"?>
<!-- Generator: Adobe Illustrator 19.0.1, SVG Export Plug-In . SVG Version: 6.00 Build 0)  -->
<svg version="1.1" id="Capa_1" xmlns="http://www.w3.org/2000/svg" xmlns:xlink="http://www.w3.org/1999/xlink" x="0px" y="0px"
	 viewBox="100 -120.7 490.7 490.7" style="enable-background:new 100 -120.7 490.7 490.7;" xml:space="preserve">
<style type="text/css">
	.st0{fill:#FFFFFF;}
</style>
<g>
	<g>
		<path class="st0" d="M516-120.7H174.7c-41.2,0-74.7,33.5-74.7,74.7v234.7c0,41.2,33.5,74.7,74.7,74.7h230.3l103.5,103.6
			c2,2,4.8,3.1,7.6,3.1c1.4,0,2.8-0.3,4.1-0.8c4-1.6,6.6-5.5,6.6-9.9v-96.7c36.1-5.2,64-36.4,64-73.9V-46
			C590.7-87.2,557.2-120.7,516-120.7z M569.3,188.7c0,29.4-23.9,53.3-53.3,53.3c-5.9,0-10.7,4.8-10.7,10.7v80.9l-88.4-88.5
			c-2-2-4.7-3.1-7.6-3.1H174.7c-29.4,0-53.3-23.9-53.3-53.3V-46c0-29.4,23.9-53.3,53.3-53.3H516c29.4,0,53.3,23.9,53.3,53.3V188.7z"
			/>
	</g>
</g>
<g>
	<g>
		<path class="st0" d="M345.3,135.3c-17.6,0-32,14.4-32,32s14.4,32,32,32c17.6,0,32-14.4,32-32S363,135.3,345.3,135.3z M345.3,178
			c-5.9,0-10.7-4.8-10.7-10.7s4.8-10.7,10.7-10.7s10.7,4.8,10.7,10.7S351.2,178,345.3,178z"/>
	</g>
</g>
<g>
	<g>
		<path class="st0" d="M379.4-46.5c-6-6.5-14.6-10.2-23.4-10.2h-21.3c-8.9,0-17.4,3.7-23.4,10.2c-6,6.5-9.1,15.2-8.5,24.2l9,105.1
			c1.2,17.5,15.9,31.1,33.6,31.1c17.5,0,32.2-13.7,33.4-31l9.2-105.4C388.6-31.2,385.5-40,379.4-46.5z M366.7-24.1l-9.2,105.5
			c-0.4,6.3-5.8,11.3-12.3,11.3c-6.4,0-11.7-4.9-12.1-11.5l-9-105.1c-0.2-3,0.8-5.9,2.8-8c2-2.2,4.8-3.4,7.8-3.4H356
			c3,0,5.8,1.2,7.8,3.4C365.9-29.8,366.9-26.9,366.7-24.1z"/>
	</g>
</g>
</svg>
