<svg xmlns="http://www.w3.org/2000/svg" viewBox="0 0 15 13.71"><defs><style>.cls-1{fill:#00aca2;}.cls-2{fill:#fff;}</style></defs><title>Asset 3</title><g id="Layer_2" data-name="Layer 2"><g id="More_filters" data-name="More filters"><path class="cls-1" d="M14.63,12.37a2.63,2.63,0,0,0,0-2.66L9.81,1.34a2.66,2.66,0,0,0-4.62,0L.36,9.71a2.67,2.67,0,0,0,2.31,4h9.65A2.66,2.66,0,0,0,14.63,12.37Z"/><path class="cls-2" d="M7.5,10.2a1,1,0,1,0,0,2,1,1,0,0,0,0-2Z"/><path class="cls-2" d="M7.26,3.22a1,1,0,0,0-.77,1c0,.29,0,.59.07.89l.2,3.34a.71.71,0,0,0,.74.66.72.72,0,0,0,.74-.68,6.48,6.48,0,0,1,0-.68c0-.72.09-1.44.14-2.16,0-.47.07-.93.09-1.4a1.09,1.09,0,0,0-.09-.47A1,1,0,0,0,7.26,3.22Z"/></g></g></svg>