<?xml version="1.0" encoding="utf-8"?>
<svg version="1.1" xmlns="http://www.w3.org/2000/svg" xmlns:xlink="http://www.w3.org/1999/xlink" x="0px" y="0px" viewBox="0 0 440 270" style="enable-background:new 0 0 440 270;" xml:space="preserve">
	<g>
		<path fill="#29C7B0" d="M116.3,200.5c0.1-1.2,0.3-2.3,0.5-3.4c2.9-14.3,14.7-25.4,29.3-27.4h142.8c6.4,0,11.5-5.1,11.5-11.5
			c0-6.4-5.1-11.5-11.5-11.5H146.2c-14.7-2-26.4-13.1-29.3-27.4c-0.2-1.1-0.4-2.3-0.5-3.4c-0.1-1.2-0.2-2.3-0.2-3.5
			c0-1.2,0.1-2.4,0.2-3.5c0.1-1.1,0.3-2.3,0.5-3.4c3.2-15.9,17.2-27.8,34-27.8h138.2c6.4,0,11.5-5.1,11.5-11.5
			c0-6.4-5.1-11.5-11.5-11.5H116.5v0c-57,0.2-103.1,46.4-103.1,103.5c0,57,46.1,103.3,103.1,103.5v0h172.5c6.4,0,11.5-5.1,11.5-11.5
			c0-6.4-5.1-11.5-11.5-11.5H150.8c-16.8,0-30.8-11.9-34-27.7c-0.2-1.1-0.4-2.3-0.5-3.4c-0.1-1.2-0.2-2.3-0.2-3.5
			C116.1,202.8,116.2,201.7,116.3,200.5"/>
		<path fill="#29C7B0" d="M323.6,154.5c-0.1-1.2-0.3-2.3-0.5-3.4c-2.9-14.3-14.7-25.4-29.3-27.4H151c-6.4,0-11.5-5.1-11.5-11.5
			c0-6.4,5.1-11.5,11.5-11.5h142.8c14.7-2,26.4-13.1,29.3-27.4c0.2-1.1,0.4-2.3,0.5-3.4c0.1-1.2,0.2-2.3,0.2-3.5s-0.1-2.4-0.2-3.5
			c-0.1-1.1-0.3-2.3-0.5-3.4c-3.2-15.9-17.2-27.8-34-27.8H151c-6.4,0-11.5-5.1-11.5-11.5c0-6.4,5.1-11.5,11.5-11.5h172.5v0
			c57,0.2,103.1,46.4,103.1,103.5c0,57-46.1,103.3-103.1,103.5v0H151c-6.4,0-11.5-5.1-11.5-11.5c0-6.4,5.1-11.5,11.5-11.5h138.2
			c16.8,0,30.8-11.9,34-27.7c0.2-1.1,0.4-2.3,0.5-3.4c0.1-1.2,0.2-2.3,0.2-3.5C323.8,156.8,323.7,155.7,323.6,154.5"/>
	</g>
</svg>
