<svg xmlns="http://www.w3.org/2000/svg" xmlns:xlink="http://www.w3.org/1999/xlink" viewBox="0 0 13.86 12.88"><defs><style>.cls-1{fill:none;}.cls-2{clip-path:url(#clip-path);}.cls-3{fill:#ffbc00;}</style><clipPath id="clip-path" transform="translate(-0.29 -0.29)"><rect id="SVGID" class="cls-1" width="14.44" height="13.48"/></clipPath></defs><title>Asset 2</title><g id="Layer_2" data-name="Layer 2"><g id="_1_onClick_left_" data-name="1 onClick (left)"><g class="cls-2"><path class="cls-3" d="M8.26.92,9.5,3.35a1.17,1.17,0,0,0,.88.62l2.76.39a1.12,1.12,0,0,1,.65,1.93l-2,1.89a1.11,1.11,0,0,0-.34,1l.47,2.67A1.16,1.16,0,0,1,10.23,13L7.76,11.78a1.2,1.2,0,0,0-1.09,0L4.2,13a1.16,1.16,0,0,1-1.7-1.19L3,9.18a1.11,1.11,0,0,0-.34-1l-2-1.89a1.12,1.12,0,0,1,.65-1.93L4.05,4a1.17,1.17,0,0,0,.88-.62L6.17.92a1.19,1.19,0,0,1,2.1,0Zm0,0" transform="translate(-0.29 -0.29)"/></g></g></g></svg>