<svg xmlns="http://www.w3.org/2000/svg" viewBox="0 0 13.86 12.88"><defs><style>.cls-1{fill:#b3b3b3;}</style></defs><title>Asset 2</title><g id="Layer_2" data-name="Layer 2"><g id="_2_onClick_left_" data-name="2 onClick (left)"><path class="cls-1" d="M8,.63,9.21,3.06a1.17,1.17,0,0,0,.88.62l2.76.39A1.12,1.12,0,0,1,13.5,6l-2,1.89a1.11,1.11,0,0,0-.34,1l.47,2.67a1.16,1.16,0,0,1-1.7,1.19L7.47,11.49a1.2,1.2,0,0,0-1.09,0L3.91,12.75a1.16,1.16,0,0,1-1.7-1.19l.47-2.67a1.11,1.11,0,0,0-.34-1L.35,6A1.12,1.12,0,0,1,1,4.07l2.76-.39a1.17,1.17,0,0,0,.88-.62L5.88.63A1.19,1.19,0,0,1,8,.63Zm0,0"/></g></g></svg>