<?xml version="1.0" encoding="utf-8"?>
<svg version="1.1"
	 xmlns="http://www.w3.org/2000/svg" xmlns:xlink="http://www.w3.org/1999/xlink" x="0px" y="0px" viewBox="0 0 420 70"
	 style="enable-background:new 0 0 420 70;" xml:space="preserve">
<style type="text/css">
	.st0{fill:#00ACA2;}
</style>
	<g>
		<path class="st0" d="M28.6,48.4c0-0.3,0.1-0.5,0.1-0.7c0.6-3.1,3.2-5.5,6.4-6l31.1,0c1.4,0,2.5-1.1,2.5-2.5c0-1.4-1.1-2.5-2.5-2.5
			l-31.1,0c-3.2-0.4-5.8-2.8-6.4-6c0-0.2-0.1-0.5-0.1-0.7c0-0.3,0-0.5,0-0.8c0-0.3,0-0.5,0-0.8c0-0.2,0.1-0.5,0.1-0.7
			c0.7-3.5,3.7-6.1,7.4-6.1l30.1,0c1.4,0,2.5-1.1,2.5-2.5c0-1.4-1.1-2.5-2.5-2.5l-37.6,0v0c-12.4,0-22.5,10.1-22.5,22.6
			c0,12.4,10.1,22.5,22.5,22.6v0l37.6,0c1.4,0,2.5-1.1,2.5-2.5c0-1.4-1.1-2.5-2.5-2.5l-30.1,0c-3.7,0-6.7-2.6-7.4-6
			c0-0.2-0.1-0.5-0.1-0.7c0-0.3,0-0.5,0-0.8C28.5,48.9,28.6,48.6,28.6,48.4"/>
		<path class="st0" d="M73.8,38.3c0-0.3-0.1-0.5-0.1-0.7c-0.6-3.1-3.2-5.5-6.4-6l-31.1,0c-1.4,0-2.5-1.1-2.5-2.5
			c0-1.4,1.1-2.5,2.5-2.5l31.1,0c3.2-0.4,5.8-2.8,6.4-6c0-0.2,0.1-0.5,0.1-0.7c0-0.3,0-0.5,0-0.8c0-0.3,0-0.5,0-0.8
			c0-0.2-0.1-0.5-0.1-0.7c-0.7-3.5-3.7-6.1-7.4-6.1l-30.1,0c-1.4,0-2.5-1.1-2.5-2.5c0-1.4,1.1-2.5,2.5-2.5l37.6,0v0
			c12.4,0,22.5,10.1,22.5,22.6c0,12.4-10.1,22.5-22.5,22.6v0l-37.6,0c-1.4,0-2.5-1.1-2.5-2.5c0-1.4,1.1-2.5,2.5-2.5l30.1,0
			c3.7,0,6.7-2.6,7.4-6c0-0.2,0.1-0.5,0.1-0.7c0-0.3,0-0.5,0-0.8C73.8,38.8,73.8,38.6,73.8,38.3"/>
		<g>
			<path class="st0" d="M127.5,7.8l19.5,0c9.1,0,15.2,4.3,15.2,13.1c0,6.2-3.3,11.1-8.4,12v0.1c4,0.6,9.9,2.3,9.9,13.2
				c0,6.3-2.8,14.8-17.6,14.8l-18.5,0L127.5,7.8z M140.1,29.1l3.4,0c4.3,0,6.1-2.5,6.1-6.3c0-2.8-1.5-5.8-6.1-5.8l-3.5,0L140.1,29.1
				z M140.1,51.9h3.8c5.1,0,6.8-3.2,6.8-7c0-5.2-2.7-7.5-6.6-7.5l-4,0L140.1,51.9z"/>
			<path class="st0" d="M191.5,7.8l15.7,0l13.3,53.3l-13,0L205.5,51l-12.8,0l-1.9,10.2l-13,0L191.5,7.8z M199.1,17.5H199l-4.4,23.8
				l9.1,0L199.1,17.5z"/>
			<path class="st0" d="M233.5,51.9L251.6,18L235,18l0-10.2l31.1,0l0,8.8L247.7,51l18.3,0l0,10.2l-32.5,0L233.5,51.9z"/>
			<path class="st0" d="M282.9,7.8l30.9,0l0,10.2l-18.3,0l0,10.7l17.2,0l0,10.2l-17.2,0l0,12.2l19.1,0l0,10.2l-31.7,0L282.9,7.8z"/>
			<path class="st0" d="M341.3,7.8l15.7,0l13.3,53.3l-13,0L355.3,51l-12.8,0l-1.9,10.2l-13,0L341.3,7.8z M348.9,17.5h-0.1l-4.4,23.8
				l9.1,0L348.9,17.5z"/>
			<path class="st0" d="M389.2,18L378,18l0-10.2l35,0l0,10.2l-11.2,0l0,43.2l-12.6,0L389.2,18z"/>
		</g>
	</g>
</svg>
