<svg xmlns="http://www.w3.org/2000/svg" xmlns:xlink="http://www.w3.org/1999/xlink" viewBox="0 0 395.07 328.23"><defs><style>.cls-1{fill:#b8aeab;}.cls-11,.cls-2{fill:#fff;}.cls-10,.cls-13,.cls-14,.cls-17,.cls-2,.cls-21,.cls-23,.cls-27,.cls-28,.cls-32,.cls-36,.cls-37,.cls-4,.cls-6{stroke:#715d58;}.cls-10,.cls-14,.cls-17,.cls-2,.cls-27,.cls-28{stroke-linecap:round;}.cls-13,.cls-14,.cls-2,.cls-32{stroke-linejoin:round;}.cls-13,.cls-14,.cls-17,.cls-2,.cls-23,.cls-28,.cls-37,.cls-6{stroke-width:3px;}.cls-14,.cls-17,.cls-21,.cls-27,.cls-3,.cls-36,.cls-37{fill:none;}.cls-18,.cls-20,.cls-4{fill:#ffdca8;}.cls-10,.cls-17,.cls-21,.cls-23,.cls-27,.cls-28,.cls-36,.cls-37,.cls-4,.cls-6{stroke-miterlimit:10;}.cls-21,.cls-32,.cls-4{stroke-width:5px;}.cls-5{fill:#ffc268;}.cls-33,.cls-6{fill:#ff9b7c;}.cls-7{isolation:isolate;}.cls-8{clip-path:url(#clip-path);}.cls-10,.cls-9{fill:#686868;}.cls-10,.cls-27{stroke-width:5.39px;}.cls-12{clip-path:url(#clip-path-2);}.cls-13,.cls-25{fill:#ffeeb9;}.cls-15{clip-path:url(#clip-path-3);}.cls-16,.cls-22{fill:#715d58;}.cls-16,.cls-36{opacity:0.2;}.cls-19{clip-path:url(#clip-path-4);}.cls-20{opacity:0.5;mix-blend-mode:hard-light;}.cls-23{fill:#b3b3b3;}.cls-24{clip-path:url(#clip-path-5);}.cls-26,.cls-28{fill:#c2e4c3;}.cls-29{clip-path:url(#clip-path-6);}.cls-30{clip-path:url(#clip-path-7);}.cls-31{fill:#ffc6b4;}.cls-32{fill:#d6d6d6;}.cls-34{clip-path:url(#clip-path-8);}.cls-35{clip-path:url(#clip-path-9);}.cls-36{stroke-width:6px;}</style><clipPath id="clip-path"><circle id="SVGID" class="cls-1" cx="110" cy="110" r="110"/></clipPath><clipPath id="clip-path-2"><path id="SVGID-2" data-name="SVGID" class="cls-2" d="M149.52,215.63a62.2,62.2,0,0,0-4.11-22.06l-.12,0c-6.51-16.41-19.86-27.68-35.29-27.68s-28.74,11.23-35.26,27.6h0a62.86,62.86,0,0,0-4.26,22.16"/></clipPath><clipPath id="clip-path-3"><path id="SVGID-3" data-name="SVGID" class="cls-3" d="M54,207.07c3-28.31,27.92-49.15,56-49.15s53,20.84,56,49.15"/></clipPath><clipPath id="clip-path-4"><path id="SVGID-4" data-name="SVGID" class="cls-4" d="M174.9,109.27a64.9,64.9,0,0,1-129.8,0C45.1,73.43,74.16,30,110,30S174.9,73.43,174.9,109.27Z"/></clipPath><clipPath id="clip-path-5"><circle id="SVGID-5" data-name="SVGID" class="cls-5" cx="285.07" cy="203.71" r="110"/></clipPath><clipPath id="clip-path-6"><path id="SVGID-6" data-name="SVGID" class="cls-3" d="M229.07,300.77c3-28.31,27.92-49.15,56-49.15s53,20.84,56,49.15"/></clipPath><clipPath id="clip-path-7"><path id="SVGID-7" data-name="SVGID" class="cls-4" d="M350,203a64.9,64.9,0,0,1-129.8,0c0-35.84,29.06-79.27,64.9-79.27S350,167.13,350,203Z"/></clipPath><clipPath id="clip-path-8"><path id="SVGID-8" data-name="SVGID" class="cls-6" d="M338.56,159.6c-2.06-1.69-12.24-15.17-54.23-15.17s-52.17,13.48-54.23,15.17c-2.75,11.61-4.23,23.12-1.46,27.53,2.86,4.56,9.45,3.67,14.14.47s14.34-13.31,41.55-13.31,36.74,9.82,41.43,13.13,5.19,3.38,7.81,3.38a7.61,7.61,0,0,0,6.51-3.38C343,183,341.42,171.67,338.56,159.6Z"/></clipPath><clipPath id="clip-path-9"><path id="SVGID-9" data-name="SVGID" class="cls-3" d="M338.56,159.6c-2.06-1.69-12.24-15.17-54.23-15.17s-52.17,13.48-54.23,15.17c-2.75,11.61-4.23,23.12-1.46,27.53,2.86,4.56,9.45,3.67,14.14.47s14.34-13.31,41.55-13.31,36.74,9.82,41.43,13.13,5.19,3.38,7.81,3.38a7.61,7.61,0,0,0,6.51-3.38C343,183,341.42,171.67,338.56,159.6Z"/></clipPath></defs><title>Asset 1</title><g class="cls-7"><g id="Layer_2" data-name="Layer 2"><g id="Step_0" data-name="Step 0"><circle id="SVGID-10" data-name="SVGID" class="cls-1" cx="110" cy="110" r="110"/><g class="cls-8"><ellipse class="cls-9" cx="110" cy="209.78" rx="56" ry="10.22"/><path class="cls-10" d="M54,207.07c3-28.31,27.92-49.15,56-49.15s53,20.84,56,49.15"/><path class="cls-11" d="M71.25,213.75v3.19c10,2.67,23.59,4.32,38.75,4.32s28.76-1.66,38.75-4.33v-3.18Z"/><path id="SVGID-11" data-name="SVGID" class="cls-11" d="M149.52,215.63a62.2,62.2,0,0,0-4.11-22.06l-.12,0c-6.51-16.41-19.86-27.68-35.29-27.68s-28.74,11.23-35.26,27.6h0a62.86,62.86,0,0,0-4.26,22.16"/><g class="cls-12"><circle class="cls-13" cx="58.75" cy="175.81" r="31.25"/><circle class="cls-13" cx="161.25" cy="175.81" r="31.25"/></g><path id="SVGID-12" data-name="SVGID" class="cls-14" d="M149.52,215.63a62.2,62.2,0,0,0-4.11-22.06l-.12,0c-6.51-16.41-19.86-27.68-35.29-27.68s-28.74,11.23-35.26,27.6h0a62.86,62.86,0,0,0-4.26,22.16"/><g class="cls-15"><ellipse class="cls-13" cx="110" cy="158.31" rx="15" ry="31.25"/><path class="cls-16" d="M177,125.94c-4.22-28.46-34-49-67.08-49s-62.86,20.57-67.09,49C38,158.5,67.75,188.56,109.94,188.56S181.86,158.5,177,125.94Z"/></g><circle class="cls-4" cx="36.64" cy="116.46" r="14.37"/><path class="cls-17" d="M35.24,117.35a5,5,0,0,1,10,0"/><circle class="cls-4" cx="183.36" cy="116.46" r="14.37"/><path class="cls-17" d="M174.76,117.35a5,5,0,1,1,10,0"/><path id="SVGID-13" data-name="SVGID" class="cls-18" d="M174.9,109.27a64.9,64.9,0,0,1-129.8,0C45.1,73.43,74.16,30,110,30S174.9,73.43,174.9,109.27Z"/><g class="cls-19"><circle class="cls-20" cx="89.79" cy="76.93" r="76.8"/></g><path id="SVGID-14" data-name="SVGID" class="cls-21" d="M174.9,109.27a64.9,64.9,0,0,1-129.8,0C45.1,73.43,74.16,30,110,30S174.9,73.43,174.9,109.27Z"/><circle class="cls-22" cx="88.38" cy="99.59" r="6.25"/><circle class="cls-22" cx="131.49" cy="99.59" r="6.25"/><polygon class="cls-22" points="99.65 31.56 110.84 10.42 120.37 31.56 110.84 45.83 99.65 31.56"/></g><path class="cls-17" d="M102.43,110.21a7.5,7.5,0,1,0,15,0"/><path class="cls-23" d="M35,141.36h0a2.82,2.82,0,0,1-2.81-2.81V125.43A2.82,2.82,0,0,1,35,122.61h0a2.82,2.82,0,0,1,2.81,2.81v13.13A2.82,2.82,0,0,1,35,141.36Z"/><circle id="SVGID-15" data-name="SVGID" class="cls-5" cx="285.07" cy="203.71" r="110"/><g class="cls-24"><path class="cls-22" d="M349.53,189.77c0-34.19-26.63-61.9-64.1-61.9s-65.35,27.71-65.35,61.9-44.65,96.85,65.35,96.85S349.53,224,349.53,189.77Z"/><path class="cls-25" d="M246.2,301.21a62.69,62.69,0,0,1,3.16-12.81c.07-.19.13-.38.2-.56.51-1.34,1.05-2.64,1.64-3.89a55.41,55.41,0,0,1-10.4-11.68,53.77,53.77,0,0,0-11.33,25.82,4.64,4.64,0,0,0-.22,1,4.37,4.37,0,0,0,0,.65c-.06.5-.13,1-.18,1.51h.51c1.45,3.68,7.56,7,16.74,9.44V310h-.77a63.2,63.2,0,0,1,.63-8.75Z"/><path class="cls-25" d="M341.06,301.21c-.05-.51-.11-1-.18-1.5a4.37,4.37,0,0,0,0-.67,4.66,4.66,0,0,0-.23-1,53.77,53.77,0,0,0-11.32-25.78,55.42,55.42,0,0,1-10.4,11.68c.59,1.25,1.14,2.55,1.64,3.89.07.19.14.38.21.57a62.69,62.69,0,0,1,3.16,12.8h0a63.22,63.22,0,0,1,.63,8.75h-.77v.68c9.16-2.45,15.26-5.76,16.73-9.43Z"/><ellipse class="cls-26" cx="284.83" cy="271.79" rx="42.5" ry="16.91"/><path class="cls-27" d="M229.07,300.77c3-28.31,27.92-49.15,56-49.15s53,20.84,56,49.15"/><path class="cls-17" d="M251.81,282.68A55.44,55.44,0,0,1,241,272.45"/><path class="cls-17" d="M329.44,272.12a55.33,55.33,0,0,1-11.15,10.49"/><path class="cls-26" d="M246.32,307.46v3.19c10,2.67,23.59,4.32,38.75,4.32s28.76-1.66,38.75-4.33v-3.18Z"/><path class="cls-28" d="M324.59,309.33a62.2,62.2,0,0,0-4.11-22.06l-.12,0c-6.51-16.41-19.86-27.68-35.29-27.68s-28.74,11.23-35.26,27.6h0a62.86,62.86,0,0,0-4.26,22.16"/><g class="cls-29"><path class="cls-16" d="M352.1,219.65c-4.22-28.46-34-49-67.08-49s-62.86,20.57-67.09,49c-4.84,32.56,24.89,62.61,67.08,62.61S356.93,252.21,352.1,219.65Z"/></g><circle class="cls-4" cx="211.71" cy="210.16" r="14.37"/><path class="cls-17" d="M210.3,211.06a5,5,0,0,1,10,0"/><circle class="cls-4" cx="358.42" cy="210.16" r="14.37"/><path class="cls-17" d="M349.83,211.06a5,5,0,1,1,10,0"/><path id="SVGID-16" data-name="SVGID" class="cls-18" d="M350,203a64.9,64.9,0,0,1-129.8,0c0-35.84,29.06-79.27,64.9-79.27S350,167.13,350,203Z"/><g class="cls-30"><circle class="cls-20" cx="264.86" cy="170.64" r="76.8"/><path class="cls-22" d="M215.25,178.76c1.19,2.27,7.23,2.07,7.63,1.33s.83-1.49,1.25-2.2l.33-.55a29.92,29.92,0,0,1,42.07-9.59c21,13.54,41.28,24.7,70.74,13.68a14.38,14.38,0,0,0,6.35-4.48,7,7,0,0,0,1.75-4.06V111.41H215.25Z"/></g><path id="SVGID-17" data-name="SVGID" class="cls-21" d="M350,203a64.9,64.9,0,0,1-129.8,0c0-35.84,29.06-79.27,64.9-79.27S350,167.13,350,203Z"/><ellipse class="cls-31" cx="259.92" cy="207.98" rx="8.75" ry="3.75"/><ellipse class="cls-31" cx="310.22" cy="207.98" rx="8.75" ry="3.75"/><circle class="cls-22" cx="263.44" cy="193.3" r="6.25"/><path class="cls-17" d="M277.5,203.92a7.5,7.5,0,1,0,15,0"/><circle class="cls-22" cx="306.56" cy="193.3" r="6.25"/><path class="cls-16" d="M304.47,289.56a19.37,19.37,0,0,0-6.16.73,48.45,48.45,0,0,1-26.84,0,19.34,19.34,0,1,0,.11,37.17,47.14,47.14,0,0,1,26.63,0,19.35,19.35,0,1,0,6.27-37.9Z"/></g><path class="cls-32" d="M284.33,113.71c-39.14,0-48.79,14.86-53.45,36.43l-1.77,8.17a2.52,2.52,0,0,0,3.34,2.9c7.33-2.77,20.39-6.77,51.88-6.77s44.54,4,51.88,6.77a2.52,2.52,0,0,0,3.34-2.9l-1.77-8.17C333.12,128.57,323.47,113.71,284.33,113.71Z"/><path class="cls-16" d="M340.12,167.1c-1.88-1.69-16.85-15.17-55.11-15.17s-53.24,13.48-55.11,15.17c-2.51,11.61-3.86,23.12-1.33,27.53,2.61,4.56,12.36,3.67,16.63.47s15-15.81,39.81-15.81,35.43,12.32,39.7,15.63,4.73,3.38,7.12,3.38,8.31-1.14,9.68-3.38C344.18,190.53,342.72,179.17,340.12,167.1Z"/><path id="SVGID-18" data-name="SVGID" class="cls-33" d="M338.56,159.6c-2.06-1.69-12.24-15.17-54.23-15.17s-52.17,13.48-54.23,15.17c-2.75,11.61-4.23,23.12-1.46,27.53,2.86,4.56,9.45,3.67,14.14.47s14.34-13.31,41.55-13.31,36.74,9.82,41.43,13.13,5.19,3.38,7.81,3.38a7.61,7.61,0,0,0,6.51-3.38C343,183,341.42,171.67,338.56,159.6Z"/><g class="cls-34"><g class="cls-35"><path class="cls-36" d="M217.61,158.35c-2.75,11.61.52,22,3.54,26.28,5.59,7.83,11.95,4.92,16.64,1.72s18.09-15.81,45.3-15.81a87.8,87.8,0,0,1,50.18,15.63c4.81,3.38,5.19,3.38,7.81,3.38a7.61,7.61,0,0,0,6.51-3.38c2.93-4.39,6.33-15.75,3.48-27.81"/></g></g><path id="SVGID-19" data-name="SVGID" class="cls-37" d="M338.56,159.6c-2.06-1.69-12.24-15.17-54.23-15.17s-52.17,13.48-54.23,15.17c-2.75,11.61-4.23,23.12-1.46,27.53,2.86,4.56,9.45,3.67,14.14.47s14.34-13.31,41.55-13.31,36.74,9.82,41.43,13.13,5.19,3.38,7.81,3.38a7.61,7.61,0,0,0,6.51-3.38C343,183,341.42,171.67,338.56,159.6Z"/></g></g></g></svg>