<svg xmlns="http://www.w3.org/2000/svg" xmlns:xlink="http://www.w3.org/1999/xlink" viewBox="0 0 495.51 447.85"><defs><style>.cls-1{fill:#fff9c8;}.cls-2{clip-path:url(#clip-path);}.cls-3{fill:#fff;opacity:0.5;}.cls-4{fill:#68c1b8;}.cls-5{fill:#a8dbd7;}.cls-6{fill:none;stroke:#68c1b8;stroke-linecap:round;stroke-miterlimit:10;}</style><clipPath id="clip-path"><path id="SVGID" class="cls-1" d="M259.49,31.77c-128.69,0-233,86.54-233,193.3,0,67.76,42.06,127.34,105.67,161.85a1.62,1.62,0,0,0,.53.34c10.3,4.63,5,20.52-6.91,35.08-9.07,11.08-26.48,22.51-19.86,22.51,10.59,0,32.35-2.64,48.15-7.64C190.65,425.65,204.67,414,204.67,414c16,2.87,37.82,4.42,54.82,4.42,128.69,0,233-86.54,233-193.3S388.19,31.77,259.49,31.77Z"/></clipPath></defs><title>Asset 2</title><g id="Layer_2" data-name="Layer 2"><g id="Step_3_-_Visiting_details" data-name="Step 3 - Visiting details"><path id="SVGID-2" data-name="SVGID" class="cls-1" d="M259.49,31.77c-128.69,0-233,86.54-233,193.3,0,67.76,42.06,127.34,105.67,161.85a1.62,1.62,0,0,0,.53.34c10.3,4.63,5,20.52-6.91,35.08-9.07,11.08-26.48,22.51-19.86,22.51,10.59,0,32.35-2.64,48.15-7.64C190.65,425.65,204.67,414,204.67,414c16,2.87,37.82,4.42,54.82,4.42,128.69,0,233-86.54,233-193.3S388.19,31.77,259.49,31.77Z"/><g class="cls-2"><ellipse class="cls-3" cx="216.2" cy="178.9" rx="216.2" ry="178.9"/></g><path class="cls-4" d="M259.49,31.77c128.69,0,233,86.54,233,193.3s-104.33,193.3-233,193.3c-17,0-38.86-1.55-54.82-4.42,0,0-14,11.7-50.61,23.26-15.8,5-37.56,7.64-48.15,7.64-6.62,0,10.79-11.42,19.86-22.51,11.92-14.56,17.21-30.45,6.91-35.08a1.6,1.6,0,0,1-.53-.34C68.54,352.41,26.48,292.83,26.48,225.07c0-106.76,104.32-193.3,233-193.3m0-3A276.2,276.2,0,0,0,167.8,44.13a242.64,242.64,0,0,0-75,41.95c-21.72,18-38.77,39-50.69,62.39a167.24,167.24,0,0,0-18.64,76.6c0,33.27,10.2,66.14,29.49,95.06,18.58,27.85,45.37,51.8,77.48,69.28a5,5,0,0,0,1,.59,5.69,5.69,0,0,1,3.47,4.14c1.36,5.79-3.14,16.12-11.48,26.3-3.6,4.41-8.77,9-12.93,12.76-7.11,6.38-10.05,9-8.84,12.19.35.92,1.37,2.46,4.23,2.46,11.76,0,33.85-3,49.05-7.78,31.43-9.93,46.44-19.95,50.49-22.94,15,2.58,36,4.24,54,4.24A276.2,276.2,0,0,0,351.19,406a242.64,242.64,0,0,0,75-41.95c21.72-18,38.77-39,50.69-62.39a166.73,166.73,0,0,0,0-153.21c-11.92-23.38-29-44.37-50.69-62.39a242.64,242.64,0,0,0-75-41.95,276.2,276.2,0,0,0-91.69-15.36Z"/><ellipse class="cls-5" cx="192.62" cy="242.07" rx="24.1" ry="10.13"/><ellipse class="cls-5" cx="326.36" cy="242.07" rx="24.1" ry="10.13"/><circle class="cls-4" cx="202" cy="203.03" r="19.11"/><path class="cls-6" d="M240.21,231.69a19.11,19.11,0,1,0,38.21,0"/><circle class="cls-4" cx="316.63" cy="203.03" r="19.11"/></g></g></svg>