<svg xmlns="http://www.w3.org/2000/svg" xmlns:xlink="http://www.w3.org/1999/xlink" viewBox="0 0 235.05 400.69"><defs><style>.cls-1,.cls-4{fill:#b5bdc1;}.cls-1{clip-rule:evenodd;}.cls-2{fill:#715d58;}.cls-3{fill:#ffd54f;}.cls-3,.cls-4,.cls-7{fill-rule:evenodd;}.cls-5{clip-path:url(#clip-path);}.cls-6{opacity:0.25;}.cls-7{fill:#fff;}.cls-8{fill:#fff9c8;opacity:0.5;}.cls-9{fill:#ffc268;}.cls-10{fill:none;stroke:#715d58;stroke-linecap:round;stroke-miterlimit:10;}</style><clipPath id="clip-path"><path id="SVGID" class="cls-1" d="M155.35,381.53q-6.61,4.78-13.25,9.22c-13.48,9.26-35.68,9.26-49.16,0q-6.62-4.43-13.22-9.19a25.1,25.1,0,0,1-10.41-19.79q0-39.47,0-78.95c0-5.49,4.42-9.09,9.89-8.29a264.9,264.9,0,0,0,76.67,0c5.48-.8,9.89,2.8,9.89,8.29v78.91A25.1,25.1,0,0,1,155.35,381.53Z"/></clipPath></defs><title>Asset 3</title><g id="Layer_2" data-name="Layer 2"><g id="Step_1_-_Producer" data-name="Step 1 - Producer"><path class="cls-2" d="M117.51,399.19c-9.63,0-18.66-2.56-25.42-7.21-4.43-3-8.89-6.06-13.25-9.21a26.51,26.51,0,0,1-11-21V282.83a9.48,9.48,0,0,1,6-9.05L17.12,175.49a116,116,0,1,1,200.8,0l-56.69,98.28a9.47,9.47,0,0,1,6,9.05v78.91a26.51,26.51,0,0,1-11,21c-4.38,3.17-8.86,6.28-13.3,9.25-6.75,4.64-15.79,7.2-25.42,7.2Z"/><path class="cls-2" d="M117.52,3a114.38,114.38,0,0,1,99.1,171.74L159,274.69a8,8,0,0,1,6.78,8.14v78.91a25.1,25.1,0,0,1-10.4,19.79q-6.61,4.78-13.25,9.22c-6.74,4.63-15.67,6.95-24.59,6.95s-17.84-2.31-24.58-6.94q-6.62-4.43-13.22-9.19a25.1,25.1,0,0,1-10.41-19.79q0-39.47,0-78.95a8,8,0,0,1,6.78-8.14l-57.65-100A114.38,114.38,0,0,1,117.52,3m0-3A117.38,117.38,0,0,0,15.82,176.24l55.88,96.89a11,11,0,0,0-5.41,9.7v78.95A28,28,0,0,0,78,384c4.39,3.17,8.87,6.28,13.31,9.25,7,4.79,16.31,7.45,26.24,7.45s19.27-2.65,26.29-7.47c4.44-3,8.93-6.09,13.31-9.26a28,28,0,0,0,11.64-22.22V282.83a11,11,0,0,0-5.42-9.7l55.89-96.89A117.44,117.44,0,0,0,117.52,0Z"/><path id="SVGID-2" data-name="SVGID" class="cls-3" d="M232,117.52A114.52,114.52,0,1,0,18.42,174.74l99.1,171.81,99.11-171.81A113.84,113.84,0,0,0,232,117.52Z"/><path id="SVGID-3" data-name="SVGID" class="cls-4" d="M155.35,381.53q-6.61,4.78-13.25,9.22c-13.48,9.26-35.68,9.26-49.16,0q-6.62-4.43-13.22-9.19a25.1,25.1,0,0,1-10.41-19.79q0-39.47,0-78.95c0-5.49,4.42-9.09,9.89-8.29a264.9,264.9,0,0,0,76.67,0c5.48-.8,9.89,2.8,9.89,8.29v78.91A25.1,25.1,0,0,1,155.35,381.53Z"/><g class="cls-5"><g class="cls-6"><path class="cls-7" d="M179.36,360.29a264.89,264.89,0,0,1-123.68,0q0-6.87,0-13.74a264.89,264.89,0,0,0,123.67,0Z"/><path class="cls-7" d="M179.36,332.81a264.89,264.89,0,0,1-123.68,0q0-6.87,0-13.74a264.89,264.89,0,0,0,123.67,0Z"/><path class="cls-7" d="M179.36,305.32a264.89,264.89,0,0,1-123.68,0q0-6.87,0-13.74a264.89,264.89,0,0,0,123.67,0Z"/></g></g><circle class="cls-8" cx="117.38" cy="117.06" r="66.21"/><ellipse class="cls-9" cx="64.67" cy="184.21" rx="19.05" ry="8.01"/><ellipse class="cls-9" cx="170.38" cy="184.21" rx="19.05" ry="8.01"/><circle class="cls-2" cx="72.08" cy="153.35" r="15.1"/><path class="cls-10" d="M102.28,176a15.1,15.1,0,0,0,30.2,0"/><circle class="cls-2" cx="162.68" cy="153.35" r="15.1"/></g></g></svg>