<svg xmlns="http://www.w3.org/2000/svg" xmlns:xlink="http://www.w3.org/1999/xlink" viewBox="0 0 529.5 610.9"><defs><style>.cls-1{fill:#ff7043;}.cls-10,.cls-2{fill:none;}.cls-3{isolation:isolate;}.cls-4{fill:#715d58;}.cls-5{fill:#d4e157;}.cls-6{clip-path:url(#clip-path);}.cls-7{fill:#fff176;opacity:0.4;mix-blend-mode:soft-light;}.cls-8{clip-path:url(#clip-path-2);}.cls-9{fill:#9ccc65;}.cls-10{stroke:#715d58;stroke-linecap:round;stroke-miterlimit:10;}</style><clipPath id="clip-path"><path id="SVGID" class="cls-1" d="M133.48,204.75a146.31,146.31,0,0,1,48.11,3,253,253,0,0,0,113.89,0,146.31,146.31,0,0,1,48.11-3c77.51,8,132.74,77.76,130.41,155.64-4.19,140.68-91.51,247.5-168.14,247.5a101.39,101.39,0,0,1-42.92-9.41,57.46,57.46,0,0,0-48.82,0,101.37,101.37,0,0,1-42.91,9.41c-76.63,0-164-106.82-168.15-247.5C.75,282.51,56,212.71,133.48,204.75Z"/></clipPath><clipPath id="clip-path-2"><path id="SVGID-2" data-name="SVGID" class="cls-2" d="M135.27,18.2c16,13.53,35.93,22.59,56.14,30.31,34.67,11.71,60.05,39.44,54.05,76.37-2.3,17.61-4.87,35.28-6.13,52.67-1.15,15.75-17.46,25.33-31,17.61-15.49-9-30.89-17.95-46.91-27-28.54-16.42-54.23-48.81-57.35-83.07-1.27-21.71-.27-42.93,6.06-63C113.94,11.78,127.45,11.11,135.27,18.2Z"/></clipPath></defs><title>Asset 1</title><g class="cls-3"><g id="Layer_2" data-name="Layer 2"><g id="Step_2_OR_1_-_User" data-name="Step 2 (OR 1) - User"><path class="cls-4" d="M305.87,609.4a102.22,102.22,0,0,1-43.55-9.55,56,56,0,0,0-47.55,0,102.25,102.25,0,0,1-43.55,9.55c-19,0-39.33-6.61-58.82-19.13-19.22-12.34-37.77-30.49-53.63-52.49C23.85,489.35,3.54,426.37,1.57,360.44a157.66,157.66,0,0,1,35.61-105c24.52-29.77,58.66-48.29,96.15-52.14a151.76,151.76,0,0,1,15.45-.8,147,147,0,0,1,33.16,3.78,251,251,0,0,0,56.6,6.45,251,251,0,0,0,56.61-6.45,147,147,0,0,1,33.15-3.78,151.78,151.78,0,0,1,15.45.8c37.49,3.85,71.63,22.37,96.15,52.14a157.66,157.66,0,0,1,35.61,105c-2,65.93-22.28,128.91-57.19,177.34-15.86,22-34.41,40.16-53.63,52.49C345.19,602.78,324.85,609.4,305.87,609.4Z"/><path class="cls-4" d="M328.3,204a149.64,149.64,0,0,1,15.3.79c77.51,8,132.74,77.76,130.41,155.64-4.19,140.68-91.51,247.5-168.14,247.5a101.37,101.37,0,0,1-42.92-9.41,57.47,57.47,0,0,0-48.82,0,101.37,101.37,0,0,1-42.91,9.41c-76.64,0-164-106.82-168.15-247.5C.75,282.51,56,212.71,133.48,204.75a149.69,149.69,0,0,1,15.3-.79,145.13,145.13,0,0,1,32.82,3.74,252.32,252.32,0,0,0,56.94,6.49,252.32,252.32,0,0,0,56.94-6.49A145.15,145.15,0,0,1,328.3,204m0-3a148.52,148.52,0,0,0-33.49,3.82,249.47,249.47,0,0,1-56.27,6.41,249.47,249.47,0,0,1-56.27-6.41A148.51,148.51,0,0,0,148.78,201a153.32,153.32,0,0,0-15.6.8C95.3,205.66,60.79,224.36,36,254.44a159.16,159.16,0,0,0-36,106C2,426.71,22.46,490,57.55,538.65c16,22.16,34.66,40.44,54,52.88,19.74,12.67,40.36,19.36,59.63,19.36a103.73,103.73,0,0,0,44.18-9.69,54.47,54.47,0,0,1,46.28,0,103.73,103.73,0,0,0,44.19,9.69c19.27,0,39.89-6.7,59.63-19.36,19.38-12.44,38.06-30.72,54-52.88C454.62,490,475,426.71,477,360.48a159.16,159.16,0,0,0-36-106c-24.77-30.08-59.27-48.79-97.15-52.68a153.31,153.31,0,0,0-15.6-.8Z"/><path class="cls-5" d="M218.4,199.37a21.53,21.53,0,0,1-10.8-2.92l-3.17-1.84c-14.16-8.22-28.81-16.72-43.73-25.11-26.5-15.24-54.73-47.19-58.11-84.25-1.49-25.45.46-45.64,6.13-63.6,2.22-6.06,7.61-9.64,14.42-9.64a19.8,19.8,0,0,1,13.14,5.08c16.59,14.05,37.46,23.06,55.67,30,18.17,6.14,33,16.25,42.93,29.22a62.15,62.15,0,0,1,12.06,48.79c-.38,2.91-.77,5.86-1.17,8.82-1.92,14.4-3.9,29.29-5,43.71C239.94,189.82,230.08,199.37,218.4,199.37Z"/><path class="cls-4" d="M123.14,13.51a18.28,18.28,0,0,1,12.13,4.69c16,13.53,35.93,22.59,56.14,30.31,34.67,11.71,60.05,39.44,54.05,76.37-2.3,17.61-4.87,35.28-6.13,52.67-.87,11.94-10.46,20.33-20.93,20.33a20.15,20.15,0,0,1-10.05-2.73c-15.49-9-30.89-17.95-46.91-27-28.54-16.42-54.23-48.81-57.35-83.07-1.27-21.71-.27-42.93,6.06-63,2.14-5.84,7.41-8.59,13-8.59m0-3h0c-7.36,0-13.41,4-15.8,10.56l0,.07,0,.07c-5.72,18.14-7.69,38.5-6.2,64.09v.1c3.43,37.59,32,70,58.84,85.4,14.93,8.39,29.56,16.88,43.71,25.1l3.19,1.85a23,23,0,0,0,11.56,3.13c12.47,0,23-10.15,23.92-23.11,1-14.39,3-29.27,4.95-43.66q.59-4.4,1.16-8.79a63.61,63.61,0,0,0-12.36-49.89C226,62.21,210.91,51.93,192.43,45.68c-18.07-6.9-38.75-15.83-55.18-29.74a21.31,21.31,0,0,0-14.1-5.43Z"/><path id="SVGID-3" data-name="SVGID" class="cls-1" d="M133.48,204.75a146.31,146.31,0,0,1,48.11,3,253,253,0,0,0,113.89,0,146.31,146.31,0,0,1,48.11-3c77.51,8,132.74,77.76,130.41,155.64-4.19,140.68-91.51,247.5-168.14,247.5a101.39,101.39,0,0,1-42.92-9.41,57.46,57.46,0,0,0-48.82,0,101.37,101.37,0,0,1-42.91,9.41c-76.63,0-164-106.82-168.15-247.5C.75,282.51,56,212.71,133.48,204.75Z"/><g class="cls-6"><path class="cls-7" d="M273.7,101.47h0c74.07.66,145.83,29,198.21,81.38q6.64,6.64,13,13.52C532.81,248.46,543,325,511.14,388.17h0a248.73,248.73,0,0,1-286.4,128.22h0A212.46,212.46,0,0,1,74.47,366.14L73,360.63C37.76,229.13,137.57,100.26,273.7,101.47Z"/></g><g class="cls-8"><path class="cls-9" d="M220.39,197.87s8.07-71-50.42-110.35-57.48-48.18-63.53-74S25.75,6.84,25.75,6.84L86.26,214.59Z"/></g><circle class="cls-4" cx="311.38" cy="334.71" r="24.2"/><path class="cls-10" d="M263,371a24.2,24.2,0,0,1-48.41,0"/><circle class="cls-4" cx="166.16" cy="334.71" r="24.2"/><ellipse class="cls-1" cx="323.25" cy="384.17" rx="30.53" ry="12.83"/><ellipse class="cls-1" cx="153.83" cy="384.17" rx="30.53" ry="12.83"/></g></g></g></svg>