<svg xmlns="http://www.w3.org/2000/svg" xmlns:xlink="http://www.w3.org/1999/xlink" viewBox="0 0 265.75 340.21"><defs><style>.cls-1,.cls-13,.cls-15{fill:none;}.cls-10,.cls-12,.cls-2,.cls-5{fill:#ffdca8;}.cls-13,.cls-15,.cls-17,.cls-2,.cls-5,.cls-7{stroke:#715d58;}.cls-13,.cls-17,.cls-2,.cls-5,.cls-7{stroke-miterlimit:10;}.cls-13,.cls-15,.cls-2,.cls-7{stroke-width:2px;}.cls-3{isolation:isolate;}.cls-17,.cls-4,.cls-9{fill:#715d58;}.cls-17,.cls-5,.cls-7{stroke-linecap:round;}.cls-6,.cls-7{fill:#efa4bf;}.cls-8{clip-path:url(#clip-path);}.cls-9{opacity:0.2;}.cls-11{clip-path:url(#clip-path-2);}.cls-12{opacity:0.5;mix-blend-mode:hard-light;}.cls-14{fill:#ed7572;}.cls-15{stroke-linejoin:round;}.cls-16{fill:#ff9b7c;}</style><clipPath id="clip-path"><path id="SVGID" class="cls-1" d="M65.1,323.62a74.09,74.09,0,1,1,148.17,0"/></clipPath><clipPath id="clip-path-2"><path id="SVGID-2" data-name="SVGID" class="cls-2" d="M222.83,195.89a83.64,83.64,0,0,1-167.27,0C55.55,149.7,93,93.74,139.19,93.74S222.83,149.7,222.83,195.89Z"/></clipPath></defs><title>Asset 2</title><g class="cls-3"><g id="Layer_2" data-name="Layer 2"><g id="Step_5_-_Thank_you" data-name="Step 5 - Thank you"><path class="cls-4" d="M237.59,169.27a98.4,98.4,0,0,0-196.79,0c0,54.34,0,154,98.4,154S237.59,223.61,237.59,169.27Z"/><circle class="cls-2" cx="44.65" cy="205.16" r="18.52"/><path class="cls-5" d="M42.34,209.79a6.95,6.95,0,0,1,13.89,0"/><circle class="cls-2" cx="233.73" cy="205.16" r="18.52"/><path class="cls-5" d="M222.15,209.79a6.95,6.95,0,0,1,13.89,0"/><ellipse class="cls-6" cx="139.19" cy="321.52" rx="74.09" ry="18.69"/><path class="cls-7" d="M65.1,323.62a74.09,74.09,0,1,1,148.17,0"/><path class="cls-7" d="M88.26,333.65c0-35.8,22.8-64.83,50.93-64.83s50.93,29,50.93,64.83"/><g class="cls-8"><circle class="cls-9" cx="139.1" cy="192.68" r="104.69"/></g><path id="SVGID-3" data-name="SVGID" class="cls-10" d="M222.83,195.89a83.64,83.64,0,0,1-167.27,0C55.55,149.7,93,93.74,139.19,93.74S222.83,149.7,222.83,195.89Z"/><g class="cls-11"><circle class="cls-12" cx="113.14" cy="154.22" r="98.97"/><circle class="cls-4" cx="181.05" cy="84.7" r="84.7"/><circle class="cls-4" cx="56.86" cy="113.84" r="56.86"/></g><path id="SVGID-4" data-name="SVGID" class="cls-13" d="M222.83,195.89a83.64,83.64,0,0,1-167.27,0C55.55,149.7,93,93.74,139.19,93.74S222.83,149.7,222.83,195.89Z"/><path id="SVGID-5" data-name="SVGID" class="cls-14" d="M139.19,333.27c23.2-17.78,55.68-38.08,55.68-66.51,0-22.17-15.5-33.25-30.37-33.25-14,0-20.64,4.64-25.31,13.92-4.67-9.28-12.07-13.92-25.31-13.92-14.87,0-30.37,11.09-30.37,33.25C83.51,295.19,116,315.49,139.19,333.27Z"/><path id="SVGID-6" data-name="SVGID" class="cls-15" d="M139.19,333.27c23.2-17.78,55.68-38.08,55.68-66.51,0-22.17-15.5-33.25-30.37-33.25-14,0-20.64,4.64-25.31,13.92-4.67-9.28-12.07-13.92-25.31-13.92-14.87,0-30.37,11.09-30.37,33.25C83.51,295.19,116,315.49,139.19,333.27Z"/><circle class="cls-2" cx="102.55" cy="314.36" r="18.52"/><circle class="cls-2" cx="181.3" cy="314.36" r="18.52"/><ellipse class="cls-16" cx="106.78" cy="202.35" rx="11.68" ry="4.91"/><ellipse class="cls-16" cx="171.6" cy="202.35" rx="11.68" ry="4.91"/><path class="cls-17" d="M148.36,195.89c0,6.54-4.06,9.26-9.17,9.26s-9.35-2.73-9.35-9.26Z"/><circle class="cls-4" cx="166.89" cy="183.42" r="9.26"/><path class="cls-4" d="M116,186.63H97.52a2.32,2.32,0,1,1,0-4.63H116a2.32,2.32,0,1,1,0,4.63Z"/></g></g></g></svg>